<?xml version="1.0" standalone="no"?>
<!DOCTYPE svg PUBLIC "-//W3C//DTD SVG 20010904//EN"
 "http://www.w3.org/TR/2001/REC-SVG-20010904/DTD/svg10.dtd">
<svg version="1.0" xmlns="http://www.w3.org/2000/svg"
 width="849.000000pt" height="849.000000pt" viewBox="0 0 849.000000 849.000000"
 preserveAspectRatio="xMidYMid meet">
<metadata>
Created by potrace 1.11, written by Peter Selinger 2001-2013
</metadata>
<g transform="translate(0.000000,849.000000) scale(0.100000,-0.100000)"
fill="#000000" stroke="none">
<path d="M2020 8467 c-87 -29 -160 -85 -209 -158 -47 -71 -60 -110 -68 -201
-11 -135 60 -278 178 -357 69 -46 109 -60 197 -68 155 -14 318 78 389 222 159
318 -152 676 -487 562z"/>
<path d="M6175 8089 c-346 -50 -656 -297 -791 -631 -17 -43 -34 -81 -36 -84
-3 -2 -74 13 -159 35 -288 75 -537 109 -849 118 -1457 39 -2805 -770 -3459
-2074 -254 -508 -383 -1021 -398 -1593 -39 -1457 770 -2805 2074 -3459 508
-254 1021 -383 1593 -398 430 -11 843 48 1246 178 684 221 1283 625 1743 1177
469 562 750 1218 847 1977 23 174 26 653 6 815 -62 506 -185 921 -392 1325
-144 280 -328 551 -521 766 l-68 76 35 34 c139 133 254 355 289 556 119 681
-470 1281 -1160 1182z m-3632 -3921 c3 -753 5 -849 20 -898 81 -265 288 -410
588 -410 306 0 515 144 596 410 15 49 17 145 20 898 l4 842 189 0 190 0 0
-818 c0 -514 -4 -849 -11 -902 -58 -468 -445 -770 -986 -770 -332 0 -624 119
-794 324 -70 84 -140 220 -171 331 -23 80 -23 83 -26 958 l-3 877 190 0 190 0
4 -842z m3209 815 c282 -80 460 -252 544 -528 25 -81 27 -106 28 -245 1 -180
-15 -255 -87 -400 -33 -69 -58 -102 -132 -175 -102 -102 -168 -145 -287 -186
-127 -43 -188 -49 -525 -49 l-313 0 0 -420 0 -420 -190 0 -190 0 0 1225 0
1226 538 -3 c515 -4 540 -5 614 -25z"/>
<path d="M4980 4206 l0 -486 273 0 c303 0 357 8 459 62 78 42 160 131 188 205
97 260 11 543 -195 643 -99 48 -135 53 -437 57 l-288 5 0 -486z"/>
</g>
</svg>
