<?xml version="1.0" standalone="no"?>
<!DOCTYPE svg PUBLIC "-//W3C//DTD SVG 20010904//EN"
 "http://www.w3.org/TR/2001/REC-SVG-20010904/DTD/svg10.dtd">
<svg version="1.0" xmlns="http://www.w3.org/2000/svg"
 width="128.000000pt" height="128.000000pt" viewBox="0 0 128.000000 128.000000"
 preserveAspectRatio="xMidYMid meet">
<metadata>
Created by potrace 1.11, written by Peter Selinger 2001-2013
</metadata>
<g transform="translate(0.000000,128.000000) scale(0.100000,-0.100000)"
fill="#000000" stroke="none">
<path d="M200 1260 c-56 -56 27 -145 87 -93 35 30 38 59 9 88 -30 30 -69 32
-96 5z"/>
<path d="M924 1266 c-37 -16 -80 -58 -88 -84 -6 -18 -10 -18 -61 -7 -219 51
-498 -42 -635 -212 -19 -24 -40 -49 -46 -56 -14 -16 -58 -113 -75 -162 -14
-44 -18 -208 -7 -267 34 -170 175 -338 348 -416 270 -122 612 -49 781 167 19
23 39 48 45 55 5 6 22 37 37 68 90 191 67 417 -59 584 -21 27 -41 52 -46 55
-5 3 0 16 11 28 27 31 43 84 37 121 -6 41 -42 94 -79 115 -39 23 -124 29 -163
11z"/>
</g>
</svg>
