<svg width="40" height="40" viewBox="0 0 40 40" fill="none" xmlns="http://www.w3.org/2000/svg">
<g clip-path="url(#clip0)">
<path d="M24.3311 36.6026V37.6159C24.3311 37.7049 24.3264 37.7939 24.3168 37.8805C24.1849 39.0726 23.174 40 21.947 40H18.2914C17.0644 40 16.0535 39.0726 15.9216 37.8805C15.9121 37.7939 15.9073 37.7049 15.9073 37.6159V36.6026C16.2228 36.7433 16.5725 36.8212 16.9404 36.8212H23.298C23.666 36.8212 24.0156 36.7433 24.3311 36.6026Z" fill="#50758D"/>
<path d="M20.0001 5.21031C19.6709 5.21031 19.4041 4.94353 19.4041 4.61428V0.596027C19.4041 0.266782 19.6709 0 20.0001 0C20.3294 0 20.5961 0.266782 20.5961 0.596027V4.61428C20.5961 4.94353 20.3293 5.21031 20.0001 5.21031Z" fill="#FFE7C9"/>
<path d="M9.30136 9.64195C9.14878 9.64195 8.99627 9.58378 8.87985 9.46744L6.03847 6.62598C5.8057 6.39313 5.8057 6.01581 6.03847 5.78304C6.2714 5.55027 6.64872 5.55043 6.88141 5.78304L9.72279 8.6245C9.95556 8.85734 9.95556 9.23467 9.72279 9.46744C9.60637 9.58378 9.45378 9.64195 9.30136 9.64195Z" fill="#FFE7C9"/>
<path d="M4.86973 20.3406H0.851398C0.522153 20.3406 0.255371 20.0739 0.255371 19.7446C0.255371 19.4154 0.522153 19.1486 0.851398 19.1486H4.86965C5.1989 19.1486 5.46568 19.4154 5.46568 19.7446C5.46568 20.0739 5.1989 20.3406 4.86973 20.3406Z" fill="#FFE7C9"/>
<path d="M6.45998 33.8808C6.30748 33.8808 6.15489 33.8226 6.03847 33.7063C5.8057 33.4734 5.8057 33.0961 6.03847 32.8633L8.87985 30.022C9.1127 29.7893 9.49002 29.7893 9.72279 30.022C9.95556 30.2548 9.95556 30.6321 9.72279 30.8649L6.88141 33.7063C6.76499 33.8226 6.61248 33.8808 6.45998 33.8808Z" fill="#FFE7C9"/>
<path d="M33.5401 33.8808C33.3876 33.8808 33.235 33.8226 33.1186 33.7063L30.2772 30.8649C30.0444 30.6321 30.0444 30.2547 30.2772 30.022C30.5101 29.7893 30.8874 29.7893 31.1201 30.022L33.9615 32.8633C34.1943 33.0962 34.1943 33.4735 33.9615 33.7063C33.8452 33.8226 33.6926 33.8808 33.5401 33.8808Z" fill="#FFE7C9"/>
<path d="M39.1487 20.3406H35.1304C34.8012 20.3406 34.5344 20.0739 34.5344 19.7446C34.5344 19.4154 34.8012 19.1486 35.1304 19.1486H39.1487C39.4779 19.1486 39.7447 19.4154 39.7447 19.7446C39.7447 20.0739 39.4778 20.3406 39.1487 20.3406Z" fill="#FFE7C9"/>
<path d="M30.6987 9.64195C30.5462 9.64195 30.3936 9.58378 30.2772 9.46744C30.0444 9.23459 30.0444 8.85727 30.2772 8.6245L33.1186 5.78304C33.3514 5.55035 33.7288 5.55035 33.9615 5.78304C34.1943 6.01589 34.1943 6.39321 33.9615 6.62598L31.1201 9.46744C31.0038 9.58378 30.8512 9.64195 30.6987 9.64195Z" fill="#FFE7C9"/>
<path d="M20.1192 36.0265C20.1192 36.0265 16.2228 36.7433 15.9073 36.6026V37.6159C15.9073 37.7049 15.9121 37.7939 15.9216 37.8805C16.0535 39.0726 17.0644 40 18.2914 40H19.3245C18.2878 40 17.4056 39.3379 17.0772 38.4137C17.0217 38.2574 17.1355 38.0927 17.3014 38.0927H23.298C23.6604 38.0927 24.0053 38.0172 24.3168 37.8805C24.3264 37.7939 24.3311 37.7049 24.3311 37.6159V36.6026C24.0156 36.7433 20.1192 36.0265 20.1192 36.0265Z" fill="#2B597F"/>
<path d="M25.8412 34.2781C25.8412 35.3144 25.2205 36.2069 24.3312 36.6026C24.0157 36.7433 23.6661 36.8212 23.2981 36.8212H16.9405C16.5725 36.8212 16.2229 36.7433 15.9074 36.6026C15.0181 36.2069 14.3974 35.3144 14.3974 34.2781C14.3974 34.2781 14.3601 30.5637 14.3529 30.4667V30.4636L20.1193 29.6689L25.8197 30.4636L25.8412 34.2781Z" fill="#50758D"/>
<path d="M18.2915 36.8212H16.9405C16.5725 36.8212 16.2229 36.7433 15.9074 36.6026C15.0181 36.2069 14.3974 35.3144 14.3974 34.2781C14.3974 34.2781 14.3601 30.5637 14.3529 30.4667V30.4636H15.7039V30.4667C15.7111 30.5637 15.7484 34.2781 15.7484 34.2781C15.7484 35.3144 16.3691 36.2069 17.2584 36.6026C17.5738 36.7433 17.9235 36.8212 18.2915 36.8212Z" fill="#2B597F"/>
<path d="M25.8411 34.2384H23.8146C23.4856 34.2384 23.2186 33.9714 23.2186 33.6424C23.2186 33.3134 23.4856 33.0464 23.8146 33.0464H25.8348L25.8379 33.6424L25.8411 34.2384Z" fill="#2B597F"/>
<path d="M21.6292 33.6424C21.6292 33.9714 21.3622 34.2384 21.0332 34.2384H14.3966L14.3831 33.0464H21.0332C21.3622 33.0464 21.6292 33.3134 21.6292 33.6424Z" fill="#2B597F"/>
<path d="M20.0104 7.1923C20.0103 7.1923 20.0102 7.1923 20.0102 7.1923L20.0104 7.19206C13.8728 7.09765 8.71139 12.4469 8.82178 18.5399C8.82178 21.6479 10.0528 24.4652 12.0475 26.5147C13.2228 27.7234 14.2401 28.8408 14.3529 30.4636L25.8197 30.4826C25.884 28.8122 26.8337 27.6837 28.017 26.4479C29.9736 24.4048 31.1783 21.6154 31.1783 18.5399C31.1783 12.276 26.1797 7.19786 20.0104 7.1923Z" fill="#FAD207"/>
<path d="M25.8196 30.4802V30.4826L14.3528 30.4636C14.24 28.8408 13.2227 27.7234 12.0474 26.5147C10.0527 24.4651 8.82169 21.6479 8.82169 18.5398C8.71122 12.4468 13.8728 7.09771 20.0103 7.19228C20.2082 7.19228 20.4053 7.19784 20.6008 7.20817C14.8034 7.54433 10.067 12.7004 10.1727 18.5398C10.1727 21.6479 11.4037 24.4651 13.3984 26.5147C14.5737 27.7234 15.591 28.8408 15.7038 30.4636L25.8196 30.4802Z" fill="#FAA515"/>
<path d="M20.2807 24.2197C20.0428 24.5261 19.6815 24.7115 19.294 24.7258C19.2776 24.7265 19.2612 24.7268 19.2449 24.7268C18.875 24.7268 18.5214 24.5703 18.2722 24.2947L14.5371 20.1623C14.0516 19.625 14.0934 18.7959 14.6307 18.3103C15.168 17.8246 15.997 17.8665 16.4828 18.4038L19.1689 21.3756L23.4545 15.8563C23.8986 15.2844 24.7223 15.1807 25.2943 15.6248C25.8663 16.069 25.9699 16.8928 25.5258 17.4647L20.2807 24.2197Z" fill="#FAA515"/>
</g>
<defs>
<clipPath id="clip0">
<rect width="40" height="40" fill="white"/>
</clipPath>
</defs>
</svg>
