<svg xmlns="http://www.w3.org/2000/svg" width="112" height="112" fill="none" viewBox="0 0 112 112">
    <path fill="#C9CF4F" d="M56 112c30.216 0 54.71-24.495 54.71-54.71 0-30.216-24.494-54.71-54.71-54.71S1.29 27.073 1.29 57.29C1.29 87.504 25.784 112 56 112z"/>
    <path fill="#FFEAD7" d="M88.731 83.562c-.466-1.71-.63-3.49-.485-5.257l1.244-12.557c.423-5.12-.357-10.25-2.624-14.862C81.022 39 82.353 38.162 82.17 26.284c0-2.416-1.959-4.374-4.374-4.374-2.416 0-4.374 1.958-4.374 4.374v43.975c0 .7-.076 1.382-.219 2.04v6.235c0 5.305-4.316 9.62-9.62 9.62H39.645c3.68 5.121 8.714 9.13 14.558 11.557l.108.046c4.861 2.053 8.133 6.625 8.65 11.806 11.343-1.44 21.602-6.356 29.678-13.644L88.73 83.562zM23.41 22.064l-1.332-1.235c-2.054-1.902-5.291-1.78-7.194.274-1.903 2.054-1.78 5.29.274 7.194l8.252 7.645V22.064z"/>
    <path fill="#F9D6BF" d="M17.6 23.85c-1.05-.975-1.592-2.299-1.619-3.635-.396.24-.768.533-1.097.889-1.903 2.054-1.78 5.29.274 7.193l8.251 7.646V29.23l-5.808-5.382z"/>
    <path fill="#5E3369" d="M63.803 0H32.805c-5.305 0-9.62 4.316-9.62 9.62v69.133c0 5.305 4.315 9.62 9.62 9.62h30.998c5.305 0 9.62-4.315 9.62-9.62V9.62c0-5.305-4.316-9.621-9.62-9.621z"/>
    <path fill="#472356" d="M33.462 78.753V9.62C33.462 4.316 37.779 0 43.084 0H32.805c-5.305 0-9.62 4.316-9.62 9.62v69.133c0 5.305 4.315 9.62 9.62 9.62h10.278c-5.305 0-9.62-4.315-9.62-9.62z"/>
    <path fill="#6393E4" d="M68.093 78.752c0 2.37-1.92 4.291-4.29 4.291H32.805c-2.37 0-4.29-1.92-4.29-4.29V9.62c0-2.37 1.92-4.29 4.29-4.29h2.364c.886 0 1.605.718 1.605 1.605v1.018c0 1.366 1.118 2.483 2.484 2.483h18.091c1.366 0 2.484-1.117 2.484-2.483V6.936c0-.887.719-1.606 1.605-1.606h2.364c2.37 0 4.29 1.921 4.29 4.29l.001 69.133z"/>
    <path fill="#566CC3" d="M33.462 9.62c0-1.54.367-2.997 1.014-4.29h-1.671c-2.37 0-4.29 1.921-4.29 4.29v69.133c0 2.37 1.92 4.29 4.29 4.29h1.67c-.646-1.293-1.013-2.75-1.013-4.29V9.62z"/>
    <path fill="#71457F" d="M53.757 6.884h-5.316c-.857 0-1.553-.696-1.553-1.554 0-.858.696-1.553 1.553-1.553h5.316c.858 0 1.554.695 1.554 1.553s-.696 1.554-1.554 1.554zM42.99 6.884c-.87 0-1.553-.714-1.553-1.554 0-1.006.93-1.714 1.858-1.522.693.13 1.249.761 1.249 1.522 0 .844-.681 1.554-1.554 1.554z"/>
    <path fill="#FFEAD7" d="M30.817 48.909c-1.674 1.807-4.496 1.914-6.303.24l-7.47-6.922c-1.807-1.674-1.915-4.496-.24-6.303 1.673-1.807 4.495-1.914 6.302-.24l7.47 6.922c1.808 1.674 1.915 4.496.24 6.303z"/>
    <path fill="#F9D6BF" d="M27.413 45.73l-7.47-6.921c-1.157-1.071-1.614-2.612-1.357-4.056-.66.233-1.274.623-1.782 1.171-1.675 1.807-1.567 4.629.24 6.303l7.47 6.922c1.807 1.674 4.629 1.566 6.303-.24.603-.651.971-1.434 1.116-2.247-1.512.534-3.262.235-4.52-.931z"/>
    <path fill="#FFEAD7" d="M30.817 61.075c-1.674 1.806-4.496 1.914-6.303.24l-7.47-6.922c-1.807-1.675-1.915-4.496-.24-6.303 1.673-1.807 4.495-1.914 6.302-.24l7.47 6.922c1.808 1.674 1.915 4.496.24 6.303z"/>
    <path fill="#F9D6BF" d="M27.413 57.896l-7.47-6.922c-1.157-1.07-1.614-2.611-1.357-4.055-.66.232-1.274.622-1.782 1.17-1.675 1.807-1.567 4.63.24 6.303l7.47 6.922c1.807 1.675 4.629 1.567 6.303-.24.603-.65.971-1.433 1.116-2.247-1.512.535-3.262.235-4.52-.93z"/>
    <path fill="#FFEAD7" d="M30.817 73.24c-1.674 1.806-4.496 1.914-6.303.24l-7.47-6.922c-1.807-1.675-1.915-4.496-.24-6.303 1.673-1.807 4.495-1.914 6.302-.24l7.47 6.922c1.808 1.674 1.915 4.496.24 6.303z"/>
    <path fill="#F9D6BF" d="M27.413 70.062l-7.47-6.922c-1.157-1.071-1.614-2.612-1.357-4.056-.66.233-1.274.623-1.782 1.171-1.675 1.807-1.567 4.629.24 6.303l7.47 6.922c1.807 1.674 4.629 1.566 6.303-.24.603-.651.971-1.434 1.116-2.247-1.512.534-3.262.235-4.52-.931zM88.347 81.69c-6.297 9.9-17.364 16.468-29.967 16.468-3.34 0-6.57-.462-9.635-1.324 1.72 1.117 3.545 2.084 5.458 2.879l.108.045c4.862 2.053 8.133 6.625 8.65 11.806 11.343-1.44 21.602-6.356 29.678-13.643l-3.908-14.358c-.168-.617-.295-1.243-.384-1.874z"/>
    <path fill="#7AACF4" d="M50.956 78.241h-5.321c-.86 0-1.556-.696-1.556-1.555 0-.86.697-1.556 1.556-1.556h5.321c.859 0 1.555.697 1.555 1.556 0 .859-.696 1.555-1.555 1.555z"/>
    <path fill="#A0D7FB" d="M40.143 37.41c2.918 0 5.283-2.364 5.283-5.282s-2.365-5.283-5.283-5.283c-2.917 0-5.282 2.365-5.282 5.283 0 2.917 2.365 5.283 5.282 5.283z"/>
    <path fill="#8AC9FF" d="M40.144 32.129c-.977-1.693-.91-3.702 0-5.282-.898-.001-1.808.225-2.641.707-2.527 1.458-3.392 4.69-1.934 7.216 1.459 2.526 4.69 3.392 7.216 1.933.834-.481 1.485-1.156 1.933-1.934-1.823-.002-3.597-.948-4.574-2.64z"/>
    <path fill="#7AACF4" d="M63.803 5.33h-2.364c-.887 0-1.606.719-1.606 1.606v1.018c0 1.366-1.117 2.483-2.483 2.483H39.258c-1.366 0-2.484-1.117-2.484-2.483V6.936c0-.887-.718-1.606-1.605-1.606h-2.364c-2.37 0-4.29 1.921-4.29 4.29v10.595h39.578V9.62c0-2.37-1.92-4.29-4.29-4.29z"/>
    <path fill="#6393E4" d="M28.514 9.62v10.595h4.948V9.62c0-1.542.367-2.998 1.014-4.29h-1.671c-2.37 0-4.29 1.92-4.29 4.29z"/>
    <path fill="#A0D7FB" d="M56.445 37.41c2.918 0 5.283-2.364 5.283-5.282s-2.365-5.283-5.283-5.283c-2.917 0-5.283 2.365-5.283 5.283 0 2.917 2.366 5.283 5.283 5.283z"/>
    <path fill="#8AC9FF" d="M56.447 32.129c-.978-1.693-.91-3.702 0-5.282-.898-.001-1.808.225-2.642.707-2.526 1.458-3.392 4.69-1.933 7.216 1.459 2.526 4.69 3.392 7.216 1.933.833-.481 1.485-1.156 1.933-1.934-1.824-.002-3.597-.948-4.574-2.64z"/>
    <path fill="#A0D7FB" d="M40.143 53.256c2.918 0 5.283-2.365 5.283-5.282 0-2.918-2.365-5.283-5.283-5.283s-5.283 2.365-5.283 5.283c0 2.917 2.365 5.282 5.283 5.282z"/>
    <path fill="#8AC9FF" d="M40.144 47.976c-.977-1.693-.91-3.702 0-5.282-.898-.001-1.808.226-2.641.707-2.527 1.458-3.392 4.69-1.934 7.216 1.459 2.526 4.69 3.392 7.216 1.933.834-.481 1.485-1.156 1.933-1.934-1.823-.002-3.597-.947-4.574-2.64z"/>
    <path fill="#A0D7FB" d="M56.444 53.256c2.917 0 5.282-2.365 5.282-5.282 0-2.918-2.365-5.283-5.282-5.283-2.918 0-5.283 2.365-5.283 5.283 0 2.917 2.365 5.282 5.283 5.282z"/>
    <path fill="#8AC9FF" d="M56.447 47.976c-.978-1.693-.91-3.702 0-5.282-.898-.001-1.808.226-2.642.707-2.526 1.458-3.392 4.69-1.933 7.216 1.459 2.526 4.69 3.392 7.216 1.933.833-.481 1.485-1.156 1.933-1.934-1.824-.002-3.597-.947-4.574-2.64z"/>
    <path fill="#A0D7FB" d="M40.143 69.225c2.918 0 5.283-2.366 5.283-5.283 0-2.918-2.365-5.283-5.283-5.283s-5.283 2.365-5.283 5.283c0 2.917 2.365 5.283 5.283 5.283z"/>
    <path fill="#8AC9FF" d="M40.144 63.944c-.977-1.693-.91-3.701 0-5.281-.898-.001-1.808.225-2.641.707-2.527 1.458-3.392 4.69-1.934 7.215 1.459 2.527 4.69 3.393 7.216 1.934.834-.481 1.485-1.156 1.933-1.934-1.823-.002-3.597-.947-4.574-2.64z"/>
    <path fill="#A0D7FB" d="M56.446 69.225c2.917 0 5.282-2.366 5.282-5.283 0-2.918-2.365-5.283-5.282-5.283-2.918 0-5.283 2.365-5.283 5.283 0 2.917 2.365 5.283 5.283 5.283z"/>
    <path fill="#8AC9FF" d="M56.447 63.944c-.978-1.693-.91-3.701 0-5.281-.898-.001-1.808.225-2.642.707-2.526 1.458-3.392 4.69-1.933 7.215 1.459 2.527 4.69 3.393 7.216 1.934.833-.481 1.485-1.156 1.933-1.934-1.824-.002-3.597-.947-4.574-2.64z"/>
</svg>
